<svg preserveAspectRatio="none" width="100%" height="100%" overflow="visible" style="display: block;" viewBox="0 0 12 12.0091" fill="none" xmlns="http://www.w3.org/2000/svg">
<g id="Group">
<path id="Vector" d="M2.35443 7.9838L4.71494 6.65924L4.75443 6.5438L4.71494 6.48H4.59949L4.20456 6.4557L2.8557 6.41924L1.68608 6.37063L0.552911 6.30987L0.267342 6.24911L0 5.89671L0.0273418 5.72051L0.267342 5.55949L0.610633 5.58987L1.37013 5.64152L2.50937 5.72051L3.3357 5.76911L4.56 5.89671H4.75443L4.78177 5.81772L4.71494 5.76911L4.66329 5.72051L3.48456 4.92152L2.20861 4.07696L1.54025 3.59089L1.17873 3.34481L0.996456 3.11392L0.917468 2.60962L1.24557 2.2481L1.68608 2.27848L1.79848 2.30886L2.24506 2.65215L3.19899 3.39038L4.44456 4.30785L4.62684 4.45975L4.69975 4.4081L4.70886 4.37165L4.62684 4.23494L3.94937 3.01063L3.22633 1.76506L2.9043 1.24861L2.81924 0.938734C2.78886 0.811139 2.76759 0.70481 2.76759 0.574177L3.14127 0.0668354L3.34785 0L3.84608 0.0668354L4.0557 0.249114L4.36557 0.956962L4.86684 2.0719L5.64456 3.58785L5.87241 4.03747L5.99392 4.45367L6.03949 4.58127H6.11848V4.50835L6.18228 3.65468L6.30076 2.60658L6.4162 1.25772L6.4557 0.877975L6.64405 0.422278L7.01772 0.176203L7.30937 0.315949L7.54937 0.659241L7.51595 0.881013L7.37316 1.8076L7.09367 3.25975L6.91139 4.2319H7.01772L7.13924 4.11038L7.63139 3.45722L8.45772 2.4243L8.82228 2.01418L9.2476 1.56152L9.52101 1.34582H10.0375L10.4172 1.91089L10.2471 2.49418L9.71544 3.16861L9.27494 3.73975L8.64304 4.59038L8.2481 5.27089L8.28456 5.32557L8.37873 5.31646L9.80658 5.01266L10.5782 4.87291L11.4987 4.71494L11.9149 4.90937L11.9605 5.10684L11.7965 5.51089L10.8122 5.75392L9.65772 5.98481L7.93823 6.3919L7.91696 6.40709L7.94127 6.43747L8.71595 6.51038L9.04709 6.52861H9.85823L11.3681 6.64101L11.763 6.90228L12 7.22127L11.9605 7.4643L11.3529 7.77418L10.5327 7.57975L8.61873 7.12405L7.96253 6.96H7.87139V7.01468L8.41823 7.54937L9.42076 8.45468L10.6754 9.62127L10.7392 9.90987L10.5782 10.1377L10.4081 10.1134L9.30532 9.28405L8.88 8.91038L7.91696 8.09924H7.85316V8.1843L8.07494 8.50937L9.2476 10.2714L9.30835 10.8122L9.22329 10.9884L8.91949 11.0947L8.58532 11.0339L7.89873 10.0709L7.19089 8.98633L6.61975 8.01418L6.54987 8.05367L6.21266 11.6841L6.05468 11.8694L5.69013 12.0091L5.38633 11.7782L5.22532 11.4046L5.38633 10.6663L5.58076 9.70329L5.73873 8.93772L5.88152 7.98684L5.96658 7.67089L5.96051 7.64962L5.89063 7.65873L5.17367 8.64304L4.08304 10.1165L3.22025 11.04L3.01367 11.122L2.65519 10.9367L2.68861 10.6056L2.88911 10.3109L4.08304 8.7919L4.80304 7.85013L5.26785 7.30633L5.26481 7.22734H5.23747L2.06582 9.28709L1.50076 9.36L1.25772 9.13215L1.2881 8.75848L1.40354 8.63696L2.35747 7.98076L2.35443 7.9838Z" fill="var(--fill-0, #6F6F6F)"/>
</g>
</svg>
