<svg preserveAspectRatio="none" width="100%" height="100%" overflow="visible" style="display: block;" viewBox="0 0 12 13.3678" fill="none" xmlns="http://www.w3.org/2000/svg">
<g id="Frame 21">
<path id="Vector" d="M5.55147 5.01335L8.69127 6.82518C8.70186 6.82871 8.70893 6.8393 8.70893 6.8499V10.3923C8.91377 10.3817 9.11509 10.3676 9.30934 10.3605C9.70232 10.2798 10.0735 10.1161 10.3982 9.88042C10.7228 9.6447 10.9934 9.3424 11.1918 8.99372C11.8134 7.92358 11.6721 6.57442 10.8422 5.65614C10.6302 5.47955 10.4183 5.30296 10.2135 5.13343C10.1958 5.12284 10.1676 5.10518 10.1464 5.09458L7.96371 3.83372C7.90745 3.80082 7.84346 3.78348 7.77829 3.78348C7.71312 3.78348 7.64912 3.80082 7.59287 3.83372L5.555 5.01688L5.55147 5.01335ZM9.26342 6.55676L6.51566 4.97097L7.46572 4.42353C7.47632 4.41647 7.48691 4.41647 7.49751 4.42L9.77201 5.73384C10.7856 6.32013 11.1318 7.61631 10.5455 8.62641C10.2982 9.05546 9.90825 9.38417 9.44355 9.55528V6.87815C9.44355 6.74748 9.37291 6.62386 9.25989 6.55676H9.26342Z" fill="var(--fill-0, #6F6F6F)"/>
<path id="Vector_2" d="M7.22249 5.46017L7.22329 9.08523C7.22553 9.09617 7.21989 9.10759 7.21071 9.11288L4.14288 10.8841C4.25448 11.0562 4.36737 11.2235 4.47062 11.3882C4.73701 11.6881 5.06438 11.9278 5.43083 12.0911C5.79728 12.2544 6.19437 12.3375 6.59555 12.335C7.83312 12.3383 8.93089 11.5414 9.31115 10.3634C9.35813 10.0916 9.40511 9.8198 9.4495 9.55764C9.44984 9.53704 9.45101 9.50375 9.44959 9.4801L9.4502 6.95942C9.45056 6.89425 9.43358 6.83016 9.40099 6.77372C9.36841 6.71728 9.32139 6.67053 9.26477 6.63826L7.22119 5.465L7.22249 5.46017ZM7.74183 9.44652L7.74128 6.27399L8.69041 6.82305C8.70182 6.8287 8.70712 6.83787 8.70936 6.84882L8.70879 9.47551C8.70787 10.6465 7.7584 11.5943 6.59049 11.5916C6.09528 11.592 5.61563 11.4187 5.23509 11.1018L7.55355 9.76321C7.66672 9.69787 7.73846 9.57489 7.74006 9.44346L7.74183 9.44652Z" fill="var(--fill-0, #6F6F6F)"/>
<path id="Vector_3" d="M7.67103 7.13073L4.53204 8.94396C4.52369 8.95137 4.51098 8.95219 4.5018 8.94689L1.43397 7.17568C1.34072 7.35838 1.2523 7.53979 1.16129 7.71155C1.03471 8.09224 0.990861 8.49556 1.03268 8.89456C1.07449 9.29356 1.201 9.67904 1.40376 10.0252C2.01973 11.0986 3.25877 11.6508 4.46901 11.3912C4.7279 11.296 4.98679 11.2008 5.23603 11.1081C5.25403 11.0981 5.28345 11.0825 5.30323 11.0694L7.4865 9.80961C7.54312 9.77734 7.59013 9.73059 7.62272 9.67415C7.6553 9.61771 7.67228 9.55362 7.67192 9.48845L7.6662 7.13202L7.67103 7.13073ZM4.47842 9.57367L7.22564 7.98694L7.2247 9.08343C7.22552 9.09614 7.22022 9.10531 7.21186 9.11272L4.9368 10.4256C3.92224 11.0103 2.62666 10.6619 2.04502 9.64914C1.79709 9.22047 1.7074 8.7184 1.79156 8.2304L4.11002 9.56897C4.22319 9.6343 4.36556 9.63494 4.48019 9.57061L4.47842 9.57367Z" fill="var(--fill-0, #6F6F6F)"/>
<path id="Vector_4" d="M6.44856 8.35445L3.30876 6.54262C3.29816 6.53909 3.2911 6.5285 3.2911 6.5179L3.2911 2.97548C3.08625 2.98607 2.88494 3.0002 2.69069 3.00726C2.29771 3.08799 1.92649 3.25167 1.60185 3.48739C1.27722 3.7231 1.00664 4.0254 0.808224 4.37408C0.186622 5.44423 0.327895 6.79339 1.15787 7.71166C1.36978 7.88825 1.58169 8.06484 1.78654 8.23437C1.8042 8.24497 1.83245 8.26263 1.85365 8.27322L4.03632 9.53408C4.09257 9.56698 4.15657 9.58432 4.22174 9.58432C4.28691 9.58432 4.3509 9.56698 4.40716 9.53408L6.44502 8.35092L6.44856 8.35445ZM2.7366 6.81104L5.48437 8.39684L4.5343 8.94427C4.52371 8.95133 4.51311 8.95133 4.50252 8.9478L2.22802 7.63396C1.21438 7.04768 0.868264 5.7515 1.45455 4.74139C1.70182 4.31234 2.09178 3.98363 2.55648 3.81252L2.55648 6.48965C2.55648 6.62033 2.62712 6.74394 2.74013 6.81104H2.7366Z" fill="var(--fill-0, #6F6F6F)"/>
<path id="Vector_5" d="M4.77754 7.90763L4.77673 4.28257C4.77449 4.27163 4.78014 4.26022 4.78931 4.25492L7.85714 2.48371C7.74554 2.3116 7.63265 2.14432 7.52941 1.97963C7.26301 1.67966 6.93564 1.44002 6.56919 1.27673C6.20274 1.11344 5.80565 1.03027 5.40448 1.03277C4.1669 1.02952 3.06913 1.82645 2.68887 3.00437C2.6419 3.27619 2.59492 3.548 2.55053 3.81017C2.55018 3.83076 2.54901 3.86406 2.55043 3.88771L2.54983 6.40839C2.54947 6.47355 2.56645 6.53765 2.59903 6.59408C2.63162 6.65052 2.67863 6.69727 2.73525 6.72954L4.77883 7.90281L4.77754 7.90763ZM4.2582 3.92128L4.25874 7.09381L3.30962 6.54475C3.2982 6.5391 3.29291 6.52993 3.29067 6.51899L3.29124 3.89229C3.29216 2.72132 4.24162 1.77348 5.40954 1.77616C5.90475 1.77579 6.38439 1.94914 6.76493 2.26603L4.44647 3.60459C4.3333 3.66993 4.26157 3.79291 4.25996 3.92434L4.2582 3.92128Z" fill="var(--fill-0, #6F6F6F)"/>
<path id="Vector_6" d="M4.329 6.23707L7.46799 4.42384C7.47634 4.41643 7.48905 4.41561 7.49823 4.42091L10.5661 6.19212C10.6593 6.00942 10.7477 5.82801 10.8387 5.65626C10.9653 5.27557 11.0092 4.87224 10.9674 4.47324C10.9255 4.07424 10.799 3.68876 10.5963 3.34259C9.9803 2.26919 8.74126 1.71696 7.53101 1.9766C7.27213 2.07183 7.01324 2.16705 6.764 2.25969C6.746 2.26968 6.71658 2.28532 6.6968 2.29838L4.51353 3.55819C4.45691 3.59046 4.4099 3.63722 4.37731 3.69365C4.34473 3.75009 4.32775 3.81418 4.32811 3.87935L4.33382 6.23578L4.329 6.23707ZM7.52161 3.79413L4.77439 5.38087L4.77533 4.28437C4.77451 4.27166 4.77981 4.26249 4.78816 4.25508L7.06323 2.94223C8.07779 2.35753 9.37337 2.70588 9.95501 3.71866C10.2029 4.14734 10.2926 4.6494 10.2085 5.1374L7.89001 3.79884C7.77684 3.7335 7.63447 3.73286 7.51984 3.79719L7.52161 3.79413Z" fill="var(--fill-0, #6F6F6F)"/>
</g>
</svg>
